<?xml version="1.0" ?><!DOCTYPE svg  PUBLIC '-//W3C//DTD SVG 1.1//EN'  'http://www.w3.org/Graphics/SVG/1.1/DTD/svg11.dtd'><svg enable-background="new 0 0 512 512" height="512px" id="Layer_1" version="1.1" viewBox="0 0 512 512" width="512px" xml:space="preserve" xmlns="http://www.w3.org/2000/svg" xmlns:xlink="http://www.w3.org/1999/xlink"><path d="M492.368,442.732c0,34.171-27.702,61.872-61.873,61.872H80.752c-34.171,0-61.874-27.701-61.874-61.872  V92.987c0-34.171,27.703-61.873,61.874-61.873h349.743c34.171,0,61.873,27.701,61.873,61.873V442.732z" fill="#992C1D"/><path d="M492.368,417.988c0,34.172-27.702,61.873-61.873,61.873H80.752c-34.171,0-61.874-27.701-61.874-61.873  V68.243c0-34.171,27.703-61.872,61.874-61.872h349.743c34.171,0,61.873,27.701,61.873,61.872V417.988z" fill="#E8563F"/><path d="M492.368,417.988V247.363c-0.122-0.125-0.247-0.245-0.368-0.371c-2.034-2.126-4.164-4.172-6.247-6.252  c-2.083-2.081-4.126-4.213-6.253-6.248c-2.127-2.035-4.088-4.252-6.258-6.242c-1.984-2.173-4.207-4.132-6.242-6.259  c-2.034-2.126-4.164-4.172-6.247-6.252c-2.083-2.081-4.126-4.213-6.253-6.248c-2.127-2.035-4.088-4.252-6.258-6.242  c-1.984-2.173-4.207-4.132-6.242-6.259c-2.034-2.126-4.164-4.172-6.247-6.252c-2.083-2.081-4.126-4.213-6.253-6.248  c-2.127-2.035-4.088-4.252-6.258-6.242c-1.984-2.173-4.207-4.132-6.242-6.259c-2.034-2.126-4.164-4.172-6.247-6.252  c-2.083-2.081-4.126-4.213-6.253-6.248c-2.127-2.035-4.088-4.252-6.258-6.242c-1.984-2.173-4.207-4.132-6.242-6.259  c-2.034-2.126-4.164-4.172-6.247-6.252c-2.051-2.049-4.077-4.125-6.15-6.15c-1.829-1.789-4.091-3.127-6.555-3.823  c-2.745-0.776-5.722-0.562-8.551-0.562c-4.579,0-9.159,0-13.739,0c-12.797,0-25.594,0-38.391,0c-8.1,0-16.199,0-24.3,0  c-7.452,0-14.905,0-22.357,0c-5.335,0-10.669,0-16.003,0c-0.318,0-0.44,0.103-0.727,0.272c-0.879,0.517-1.758,1.035-2.638,1.554  c-2.715,1.6-5.431,3.201-8.146,4.8c-1.414,0.834-2.828,1.666-4.241,2.499c-0.22,0.13-0.748,0.023-0.992,0.023  c-1.041,0-2.081,0-3.122,0c-2.731,0-5.462,0-8.192,0c-1.016,0-2.031,0-3.046,0c-0.725,0-0.854-0.194-0.854,0.584  c-1.014-0.724-1.851-1.901-2.752-2.767c-1.104-1.06-2.132-2.205-3.258-3.242c-1.995-2.165-4.204-4.134-6.243-6.258  c-3.765-3.923-7.478-7.876-13.042-8.955c-2.719-0.528-5.663-0.308-8.42-0.308c-11.427,0-22.854,0-34.28,0  c-10.486,0-20.973,0-31.459,0c-0.843,0-1.686,0-2.528,0c-3.313,0-6.579,0.932-9.277,2.881c-4.754,3.435-6.573,9.039-5.963,14.705  c0.761,7.072,1.522,14.144,2.283,21.215c1.349,12.526,2.697,25.051,4.046,37.577c1.277,11.87,2.555,23.737,3.833,35.606  c0.406,3.778,0.813,7.557,1.22,11.335c0.199,1.844,0.305,3.744,0.674,5.564c0.525,2.59,1.643,5.042,3.19,7.181  c1.641,2.266,3.809,4.097,5.744,6.101c4.086,4.229,8.267,8.418,12.501,12.498c8.484,8.178,16.516,16.824,25,25  c8.484,8.178,16.516,16.824,25,25c8.484,8.178,16.516,16.824,25,25c8.484,8.178,16.516,16.824,25,25  c8.484,8.178,16.516,16.824,25,25c1.46,1.408,50.587,50.607,81.758,81.789h89.72C464.666,479.861,492.368,452.16,492.368,417.988z" fill="#BC3822"/><g><path d="M395.361,233.795h-3.613c8.575,0,15.525-7.641,15.525-17.07v-1.166c0-9.429-6.95-17.074-15.525-17.074   h-11.274c8.574,0,15.529-7.549,15.529-16.863v-1.154c0-9.314-6.955-16.865-15.529-16.865h-11.489   c8.579,0,15.529-7.227,15.529-16.146v-1.105c0-8.915-6.95-16.145-15.529-16.145h-81.255h-15.102H249.44l-15.524,9.148h-16.167   v99.125c17.441-2.824,62.113,79.337,62.113,79.337v44.246c0,0,8.081,5.316,13.187,5.742c5.104,0.426,20.844-5.957,23.61-35.523   c2.351-25.133-5.903-55.486-8.431-64.025h87.133c8.579,0,15.529-7.457,15.529-16.657v-1.143   C410.891,241.256,403.94,233.795,395.361,233.795z" fill="#FFFFFF"/><path d="M189.248,118.409h-73.602c-9.355,0-16.195,7.613-15.192,16.918l11.883,110.38   c1.003,9.308,9.479,16.92,18.838,16.92h58.073c9.359,0,17.013-7.659,17.013-17.018V135.424   C206.261,126.065,198.607,118.409,189.248,118.409z M175.634,244.973c-6.581,0-11.912-5.334-11.912-11.913   c0-6.58,5.331-11.912,11.912-11.912c6.577,0,11.912,5.332,11.912,11.912C187.546,239.639,182.211,244.973,175.634,244.973z" fill="#FFFFFF"/></g></svg>